STARTFONT 2.1
COMMENT
COMMENT  Copyright (c) 2001, Poonlap Veerathanabutr
COMMENT
COMMENT  License to copy and distribute for both commercial and
COMMENT  non-commercial use is herby granted, provided this notice
COMMENT  is preserved.
COMMENT
COMMENT  Poonlap.Veerathanabutr@Japan.Sun.COM
COMMENT  Modified from thai8bi.bdf. Emacs/Mule can use this font.
COMMENT
COMMENT  Produced with bdfedit, a tcl/tk font editing program
COMMENT  written by Thomas A. Fine
FONT -nectec-emacs-bold-i-normal--18-180-72-72-c-90-tis620-0
SIZE 18 72 72
FONTBOUNDINGBOX 18 18 -9 -3
STARTPROPERTIES 11
FOUNDRY "nectec"
FAMILY_NAME "emacs"
WEIGHT_NAME "bold"
SLANT "i"
SETWIDTH_NAME "normal"
SPACING "c"
CHARSET_REGISTRY "ISO-8859"
CHARSET_ENCODING "1"
COPYRIGHT "Copyright (C) 1999,2000 NECTEC, released under GPL license"
FONT_ASCENT  15
FONT_DESCENT 3
ENDPROPERTIES
CHARS 182
STARTCHAR SPACE
ENCODING 32
SWIDTH 500 0
DWIDTH 9 0
BBX 0 0 0 0
BITMAP
ENDCHAR
STARTCHAR EXCLAMATION
ENCODING 33
SWIDTH 500 0
DWIDTH 9 0
BBX 4 10 2 1
BITMAP
30
30
30
60
60
60
60
00
c0
c0
ENDCHAR
STARTCHAR QUOTATION
ENCODING 34
SWIDTH 500 0
DWIDTH 9 0
BBX 7 4 1 7
BITMAP
7e
7e
6c
d8
ENDCHAR
STARTCHAR NUMBER
ENCODING 35
SWIDTH 500 0
DWIDTH 9 0
BBX 9 10 0 0
BITMAP
0d80
0d80
1b00
7f80
3600
3600
ff00
6c00
d800
d800
ENDCHAR
STARTCHAR DOLLAR
ENCODING 36
SWIDTH 500 0
DWIDTH 9 0
BBX 8 10 1 0
BITMAP
06
3e
6f
6c
38
1c
36
f6
7c
60
ENDCHAR
STARTCHAR PERCENT
ENCODING 37
SWIDTH 500 0
DWIDTH 9 0
BBX 9 10 0 0
BITMAP
1e00
3680
3780
3f00
0e00
1c00
3f00
7b00
db00
1e00
ENDCHAR
STARTCHAR AMPERSAND
ENCODING 38
SWIDTH 500 0
DWIDTH 9 0
BBX 9 10 0 0
BITMAP
0e00
1b00
1b00
1e00
1800
3d80
6700
c600
ce00
7b00
ENDCHAR
STARTCHAR c27
ENCODING 39
SWIDTH 500 0
DWIDTH 9 0
BBX 4 4 2 7
BITMAP
70
70
60
c0
ENDCHAR
STARTCHAR LEFT
ENCODING 40
SWIDTH 500 0
DWIDTH 9 0
BBX 7 12 2 -1
BITMAP
06
0c
18
30
60
60
c0
c0
c0
c0
60
30
ENDCHAR
STARTCHAR RIGHT
ENCODING 41
SWIDTH 500 0
DWIDTH 9 0
BBX 7 12 0 -1
BITMAP
18
0c
06
06
06
06
0c
0c
18
30
60
c0
ENDCHAR
STARTCHAR ASTERISK
ENCODING 42
SWIDTH 500 0
DWIDTH 9 0
BBX 8 7 0 1
BITMAP
0c
6f
7e
3c
7e
f6
30
ENDCHAR
STARTCHAR PLUS
ENCODING 43
SWIDTH 500 0
DWIDTH 9 0
BBX 8 7 1 1
BITMAP
0c
0c
18
ff
18
30
30
ENDCHAR
STARTCHAR COMMA
ENCODING 44
SWIDTH 500 0
DWIDTH 9 0
BBX 4 4 1 -2
BITMAP
70
70
60
c0
ENDCHAR
STARTCHAR HYPHEN,
ENCODING 45
SWIDTH 500 0
DWIDTH 9 0
BBX 8 1 0 4
BITMAP
ff
ENDCHAR
STARTCHAR FULL
ENCODING 46
SWIDTH 500 0
DWIDTH 9 0
BBX 3 2 2 0
BITMAP
e0
e0
ENDCHAR
STARTCHAR c2f
ENCODING 47
SWIDTH 500 0
DWIDTH 9 0
BBX 9 10 0 -1
BITMAP
0080
0180
0300
0600
0c00
1800
3000
6000
c000
8000
ENDCHAR
STARTCHAR DIGIT
ENCODING 48
SWIDTH 500 0
DWIDTH 9 0
BBX 9 10 0 0
BITMAP
0f00
1980
3180
6180
6180
c300
c300
c600
cc00
7800
ENDCHAR
STARTCHAR DIGIT
ENCODING 49
SWIDTH 500 0
DWIDTH 9 0
BBX 7 10 1 0
BITMAP
06
1c
3c
0c
18
18
18
30
30
fc
ENDCHAR
STARTCHAR DIGIT
ENCODING 50
SWIDTH 500 0
DWIDTH 9 0
BBX 9 10 0 0
BITMAP
1f00
3180
6180
6180
0700
0c00
3800
6000
c000
fe00
ENDCHAR
STARTCHAR DIGIT
ENCODING 51
SWIDTH 500 0
DWIDTH 9 0
BBX 9 10 0 0
BITMAP
1f00
3180
6180
0300
1e00
0600
0300
0300
c600
7c00
ENDCHAR
STARTCHAR DIGIT
ENCODING 52
SWIDTH 500 0
DWIDTH 9 0
BBX 8 10 0 0
BITMAP
01
03
07
0f
1e
36
66
ff
0c
0c
ENDCHAR
STARTCHAR DIGIT
ENCODING 53
SWIDTH 500 0
DWIDTH 9 0
BBX 9 10 0 0
BITMAP
1f80
3000
3000
7e00
6300
0300
0300
0300
c600
7c00
ENDCHAR
STARTCHAR DIGIT
ENCODING 54
SWIDTH 500 0
DWIDTH 9 0
BBX 8 10 0 0
BITMAP
0f
18
30
7c
66
c3
c3
c3
c6
7c
ENDCHAR
STARTCHAR DIGIT
ENCODING 55
SWIDTH 500 0
DWIDTH 9 0
BBX 8 10 1 0
BITMAP
ff
06
0c
18
30
60
60
c0
c0
c0
ENDCHAR
STARTCHAR DIGIT
ENCODING 56
SWIDTH 500 0
DWIDTH 9 0
BBX 8 10 0 0
BITMAP
1e
33
33
3e
66
c3
c3
c3
c6
7c
ENDCHAR
STARTCHAR DIGIT
ENCODING 57
SWIDTH 500 0
DWIDTH 9 0
BBX 8 10 0 0
BITMAP
3e
63
c3
c3
c3
66
3e
0c
18
f0
ENDCHAR
STARTCHAR COLON
ENCODING 58
SWIDTH 500 0
DWIDTH 9 0
BBX 5 7 2 0
BITMAP
38
38
00
00
00
e0
e0
ENDCHAR
STARTCHAR SEMICOLON
ENCODING 59
SWIDTH 500 0
DWIDTH 9 0
BBX 6 9 1 -2
BITMAP
1c
1c
00
00
00
70
70
60
c0
ENDCHAR
STARTCHAR LESS-THAN
ENCODING 60
SWIDTH 500 0
DWIDTH 9 0
BBX 7 10 2 0
BITMAP
06
0c
18
30
60
c0
c0
60
30
18
ENDCHAR
STARTCHAR EQUALS
ENCODING 61
SWIDTH 500 0
DWIDTH 9 0
BBX 9 5 0 2
BITMAP
3f80
0000
0000
0000
ff00
ENDCHAR
STARTCHAR GREATER-THAN
ENCODING 62
SWIDTH 500 0
DWIDTH 9 0
BBX 7 10 0 0
BITMAP
30
18
0c
06
06
0c
18
30
60
c0
ENDCHAR
STARTCHAR QUESTION
ENCODING 63
SWIDTH 500 0
DWIDTH 9 0
BBX 8 10 1 0
BITMAP
3e
63
c3
06
0c
18
30
30
00
30
ENDCHAR
STARTCHAR COMMERCIAL
ENCODING 64
SWIDTH 500 0
DWIDTH 9 0
BBX 9 10 0 0
BITMAP
1f00
3180
6180
7f80
f300
f300
f300
fe00
c000
7e00
ENDCHAR
STARTCHAR CAPITAL
ENCODING 65
SWIDTH 500 0
DWIDTH 9 0
BBX 9 10 0 0
BITMAP
0f00
1980
3180
3180
6300
7f00
6300
c600
c600
c600
ENDCHAR
STARTCHAR CAPITAL
ENCODING 66
SWIDTH 500 0
DWIDTH 9 0
BBX 9 10 0 0
BITMAP
1f00
3180
3180
3300
7e00
6300
6300
c300
c600
fc00
ENDCHAR
STARTCHAR CAPITAL
ENCODING 67
SWIDTH 500 0
DWIDTH 9 0
BBX 9 10 0 0
BITMAP
1f00
3180
6180
6000
6000
c000
c000
c300
6600
3c00
ENDCHAR
STARTCHAR CAPITAL
ENCODING 68
SWIDTH 500 0
DWIDTH 9 0
BBX 9 10 0 0
BITMAP
3e00
3300
3180
6180
6180
6180
6300
c300
c600
fc00
ENDCHAR
STARTCHAR CAPITAL
ENCODING 69
SWIDTH 500 0
DWIDTH 9 0
BBX 8 10 0 0
BITMAP
3f
30
30
60
7e
60
60
c0
c0
fe
ENDCHAR
STARTCHAR CAPITAL
ENCODING 70
SWIDTH 500 0
DWIDTH 9 0
BBX 8 10 0 0
BITMAP
3f
30
30
70
7e
60
60
c0
c0
c0
ENDCHAR
STARTCHAR CAPITAL
ENCODING 71
SWIDTH 500 0
DWIDTH 9 0
BBX 9 10 0 0
BITMAP
1f00
3180
6180
6000
6000
cf00
c300
c300
6e00
3e00
ENDCHAR
STARTCHAR CAPITAL
ENCODING 72
SWIDTH 500 0
DWIDTH 9 0
BBX 9 10 0 0
BITMAP
3180
3180
3180
6300
7f00
6300
6300
c600
c600
c600
ENDCHAR
STARTCHAR CAPITAL
ENCODING 73
SWIDTH 500 0
DWIDTH 9 0
BBX 9 10 0 0
BITMAP
3f80
0c00
0c00
1800
1800
1800
3000
3000
3000
fc00
ENDCHAR
STARTCHAR CAPITAL
ENCODING 74
SWIDTH 500 0
DWIDTH 9 0
BBX 9 10 0 0
BITMAP
1f80
0600
0600
0600
0c00
0c00
0c00
0c00
d800
7000
ENDCHAR
STARTCHAR CAPITAL
ENCODING 75
SWIDTH 500 0
DWIDTH 9 0
BBX 9 10 0 0
BITMAP
3180
3300
3600
7c00
7800
7800
7800
cc00
c600
c300
ENDCHAR
STARTCHAR CAPITAL
ENCODING 76
SWIDTH 500 0
DWIDTH 9 0
BBX 7 10 1 0
BITMAP
30
30
30
60
60
60
60
c0
c0
fe
ENDCHAR
STARTCHAR CAPITAL
ENCODING 77
SWIDTH 500 0
DWIDTH 9 0
BBX 9 10 0 0
BITMAP
3180
3180
3b80
7f00
6f00
6b00
6300
c600
c600
c600
ENDCHAR
STARTCHAR CAPITAL
ENCODING 78
SWIDTH 500 0
DWIDTH 9 0
BBX 9 10 0 0
BITMAP
3180
3180
3180
7b80
7b00
6f00
6f00
c600
c600
c600
ENDCHAR
STARTCHAR CAPITAL
ENCODING 79
SWIDTH 500 0
DWIDTH 9 0
BBX 9 10 0 0
BITMAP
1f00
3180
3180
6180
6180
c300
c300
c600
c600
7c00
ENDCHAR
STARTCHAR CAPITAL
ENCODING 80
SWIDTH 500 0
DWIDTH 9 0
BBX 9 10 0 0
BITMAP
1e00
3300
3180
3180
6300
7e00
6000
c000
c000
c000
ENDCHAR
STARTCHAR CAPITAL
ENCODING 81
SWIDTH 500 0
DWIDTH 9 0
BBX 9 10 0 0
BITMAP
1f00
3180
3180
6180
6180
c300
df00
ee00
ec00
7e00
ENDCHAR
STARTCHAR CAPITAL
ENCODING 82
SWIDTH 500 0
DWIDTH 9 0
BBX 9 10 0 0
BITMAP
1e00
3300
3180
3180
6300
7e00
7800
cc00
c600
c300
ENDCHAR
STARTCHAR CAPITAL
ENCODING 83
SWIDTH 500 0
DWIDTH 9 0
BBX 9 10 0 0
BITMAP
1f00
3180
3000
1800
0e00
0300
0180
c180
6300
3e00
ENDCHAR
STARTCHAR CAPITAL
ENCODING 84
SWIDTH 500 0
DWIDTH 9 0
BBX 8 10 1 0
BITMAP
ff
18
18
18
30
30
30
60
60
60
ENDCHAR
STARTCHAR CAPITAL
ENCODING 85
SWIDTH 500 0
DWIDTH 9 0
BBX 9 10 0 0
BITMAP
3180
3180
3180
6300
6300
6300
c300
c600
c600
7c00
ENDCHAR
STARTCHAR CAPITAL
ENCODING 86
SWIDTH 500 0
DWIDTH 9 0
BBX 8 10 1 0
BITMAP
c3
c3
c6
cc
cc
d8
f0
e0
e0
c0
ENDCHAR
STARTCHAR CAPITAL
ENCODING 87
SWIDTH 500 0
DWIDTH 9 0
BBX 9 10 0 0
BITMAP
3180
3180
3180
6300
6b00
7f00
7700
e600
c600
c600
ENDCHAR
STARTCHAR CAPITAL
ENCODING 88
SWIDTH 500 0
DWIDTH 9 0
BBX 9 10 0 0
BITMAP
3080
3180
3300
1e00
1c00
1800
3c00
6c00
c600
c600
ENDCHAR
STARTCHAR CAPITAL
ENCODING 89
SWIDTH 500 0
DWIDTH 9 0
BBX 8 10 1 0
BITMAP
c3
c3
66
6c
38
30
30
60
60
60
ENDCHAR
STARTCHAR CAPITAL
ENCODING 90
SWIDTH 500 0
DWIDTH 9 0
BBX 9 10 0 0
BITMAP
1f80
0180
0300
0600
0c00
1800
3000
6000
c000
fe00
ENDCHAR
STARTCHAR LEFT
ENCODING 91
SWIDTH 500 0
DWIDTH 9 0
BBX 7 12 1 -1
BITMAP
1e
18
18
30
30
30
60
60
60
c0
c0
f0
ENDCHAR
STARTCHAR REVERSE
ENCODING 92
SWIDTH 500 0
DWIDTH 9 0
BBX 4 12 2 -1
BITMAP
c0
c0
c0
c0
60
60
60
60
30
30
30
30
ENDCHAR
STARTCHAR RIGHT
ENCODING 93
SWIDTH 500 0
DWIDTH 9 0
BBX 7 12 1 -1
BITMAP
1e
06
06
0c
0c
0c
18
18
18
30
30
f0
ENDCHAR
STARTCHAR CIRCUMFLEX
ENCODING 94
SWIDTH 500 0
DWIDTH 9 0
BBX 5 3 3 9
BITMAP
38
78
d8
ENDCHAR
STARTCHAR LOW
ENCODING 95
SWIDTH 500 0
DWIDTH 9 0
BBX 8 1 0 -1
BITMAP
ff
ENDCHAR
STARTCHAR GRAVE
ENCODING 96
SWIDTH 500 0
DWIDTH 9 0
BBX 4 4 4 7
BITMAP
70
70
c0
c0
ENDCHAR
STARTCHAR SMALL
ENCODING 97
SWIDTH 500 0
DWIDTH 9 0
BBX 8 7 0 0
BITMAP
3e
63
03
7f
c6
ce
7b
ENDCHAR
STARTCHAR SMALL
ENCODING 98
SWIDTH 500 0
DWIDTH 9 0
BBX 8 10 0 0
BITMAP
30
30
30
7e
63
63
63
c3
c6
fc
ENDCHAR
STARTCHAR SMALL
ENCODING 99
SWIDTH 500 0
DWIDTH 9 0
BBX 8 7 0 0
BITMAP
3e
63
c0
c0
c0
c6
7c
ENDCHAR
STARTCHAR SMALL
ENCODING 100
SWIDTH 500 0
DWIDTH 9 0
BBX 9 10 0 0
BITMAP
0180
0180
0180
1f00
3300
6300
c300
c600
ce00
7600
ENDCHAR
STARTCHAR SMALL
ENCODING 101
SWIDTH 500 0
DWIDTH 9 0
BBX 8 7 0 0
BITMAP
3e
63
c3
fe
c0
c6
7c
ENDCHAR
STARTCHAR SMALL
ENCODING 102
SWIDTH 500 0
DWIDTH 9 0
BBX 8 10 1 0
BITMAP
0e
1b
18
30
fe
30
30
60
60
60
ENDCHAR
STARTCHAR SMALL
ENCODING 103
SWIDTH 500 0
DWIDTH 9 0
BBX 9 11 0 -3
BITMAP
0080
1f80
3300
6100
3300
3e00
6000
7e00
c300
c600
7c00
ENDCHAR
STARTCHAR SMALL
ENCODING 104
SWIDTH 500 0
DWIDTH 9 0
BBX 8 10 0 0
BITMAP
30
30
30
6e
7b
63
63
c6
c6
c6
ENDCHAR
STARTCHAR c69
ENCODING 105
SWIDTH 500 0
DWIDTH 9 0
BBX 5 10 1 0
BITMAP
18
18
00
30
f0
60
60
c0
d8
f0
ENDCHAR
STARTCHAR SMALL
ENCODING 106
SWIDTH 500 0
DWIDTH 9 0
BBX 7 13 0 -3
BITMAP
06
06
00
1e
0c
0c
0c
0c
18
18
18
d8
70
ENDCHAR
STARTCHAR SMALL
ENCODING 107
SWIDTH 500 0
DWIDTH 9 0
BBX 8 10 0 0
BITMAP
30
30
33
66
6c
78
70
d8
cc
c6
ENDCHAR
STARTCHAR SMALL
ENCODING 108
SWIDTH 500 0
DWIDTH 9 0
BBX 6 10 1 0
BITMAP
1c
0c
0c
18
18
18
30
30
30
fc
ENDCHAR
STARTCHAR SMALL
ENCODING 109
SWIDTH 500 0
DWIDTH 9 0
BBX 9 7 0 0
BITMAP
7f00
6d80
6d80
6d80
db00
db00
db00
ENDCHAR
STARTCHAR SMALL
ENCODING 110
SWIDTH 500 0
DWIDTH 9 0
BBX 8 7 0 0
BITMAP
6e
73
63
63
c6
c6
c6
ENDCHAR
STARTCHAR SMALL
ENCODING 111
SWIDTH 500 0
DWIDTH 9 0
BBX 8 7 0 0
BITMAP
3e
63
63
c3
c6
c6
7c
ENDCHAR
STARTCHAR c70
ENCODING 112
SWIDTH 500 0
DWIDTH 9 0
BBX 9 10 0 -3
BITMAP
3700
3980
3180
6180
6300
6600
7c00
c000
c000
c000
ENDCHAR
STARTCHAR c71
ENCODING 113
SWIDTH 500 0
DWIDTH 9 0
BBX 8 10 0 -3
BITMAP
1b
37
63
c6
c6
ce
76
0c
0c
0c
ENDCHAR
STARTCHAR SMALL
ENCODING 114
SWIDTH 500 0
DWIDTH 9 0
BBX 8 7 0 0
BITMAP
6e
7b
70
60
c0
c0
c0
ENDCHAR
STARTCHAR SMALL
ENCODING 115
SWIDTH 500 0
DWIDTH 9 0
BBX 8 7 0 0
BITMAP
1e
33
60
3e
03
c6
7c
ENDCHAR
STARTCHAR SMALL
ENCODING 116
SWIDTH 500 0
DWIDTH 9 0
BBX 6 10 1 0
BITMAP
18
30
30
fc
60
60
60
c0
cc
78
ENDCHAR
STARTCHAR SMALL
ENCODING 117
SWIDTH 500 0
DWIDTH 9 0
BBX 8 7 0 0
BITMAP
63
63
63
c6
c6
ce
76
ENDCHAR
STARTCHAR SMALL
ENCODING 118
SWIDTH 500 0
DWIDTH 9 0
BBX 8 7 0 0
BITMAP
c3
c6
cc
d8
f0
e0
c0
ENDCHAR
STARTCHAR SMALL
ENCODING 119
SWIDTH 500 0
DWIDTH 9 0
BBX 9 7 0 0
BITMAP
6180
6d80
6d80
db00
db00
db00
7e00
ENDCHAR
STARTCHAR SMALL
ENCODING 120
SWIDTH 500 0
DWIDTH 9 0
BBX 8 7 0 0
BITMAP
63
66
3c
38
38
6c
c6
ENDCHAR
STARTCHAR SMALL
ENCODING 121
SWIDTH 500 0
DWIDTH 9 0
BBX 8 10 0 -3
BITMAP
63
63
63
c6
c6
ce
76
0c
cc
78
ENDCHAR
STARTCHAR SMALL
ENCODING 122
SWIDTH 500 0
DWIDTH 9 0
BBX 8 7 0 0
BITMAP
7f
06
0c
18
30
60
fe
ENDCHAR
STARTCHAR LEFT
ENCODING 123
SWIDTH 500 0
DWIDTH 9 0
BBX 7 12 2 -1
BITMAP
0e
18
30
30
18
30
60
30
60
c0
c0
70
ENDCHAR
STARTCHAR VERTICAL
ENCODING 124
SWIDTH 500 0
DWIDTH 9 0
BBX 6 14 2 -2
BITMAP
0c
0c
0c
18
18
18
30
30
30
60
60
60
c0
c0
ENDCHAR
STARTCHAR c7d
ENCODING 125
SWIDTH 500 0
DWIDTH 9 0
BBX 7 12 0 -1
BITMAP
1c
06
06
0c
18
0c
18
30
18
18
30
e0
ENDCHAR
STARTCHAR TILDE
ENCODING 126
SWIDTH 500 0
DWIDTH 9 0
BBX 8 3 1 7
BITMAP
78
db
1e
ENDCHAR
STARTCHAR ca1
ENCODING 161
SWIDTH 500 0
DWIDTH 9 0
BBX 8 8 0 0
BITMAP
7e
33
66
66
66
cc
cc
cc
ENDCHAR
STARTCHAR KHO_KHAI
ENCODING 162
SWIDTH 500 0
DWIDTH 9 0
BBX 8 8 0 0
BITMAP
1b
3f
1e
1e
76
cc
cc
78
ENDCHAR
STARTCHAR ca3
ENCODING 163
SWIDTH 500 0
DWIDTH 9 0
BBX 8 8 0 0
BITMAP
2b
7f
3e
1e
76
cc
cc
78
ENDCHAR
STARTCHAR KHO_KHWAI
ENCODING 164
SWIDTH 500 0
DWIDTH 9 0
BBX 9 8 0 0
BITMAP
1f00
3180
6b00
7f00
7b00
c600
c600
c600
ENDCHAR
STARTCHAR ca5
ENCODING 165
SWIDTH 500 0
DWIDTH 9 0
BBX 9 8 0 0
BITMAP
1700
3d80
6b00
7f00
7b00
c600
c600
c600
ENDCHAR
STARTCHAR ca6
ENCODING 166
SWIDTH 500 0
DWIDTH 9 0
BBX 9 8 0 0
BITMAP
1680
3f80
1f80
0d80
1980
7b00
ff00
7600
ENDCHAR
STARTCHAR NGO_NGU
ENCODING 167
SWIDTH 500 0
DWIDTH 9 0
BBX 8 8 0 0
BITMAP
06
0f
07
c6
66
6c
3c
18
ENDCHAR
STARTCHAR CHO_CHAN
ENCODING 168
SWIDTH 500 0
DWIDTH 9 0
BBX 8 8 0 0
BITMAP
7e
c3
36
7e
3e
0c
0c
0c
ENDCHAR
STARTCHAR CHO_CHING
ENCODING 169
SWIDTH 500 0
DWIDTH 9 0
BBX 8 8 0 0
BITMAP
7e
03
66
f6
76
df
ff
cc
ENDCHAR
STARTCHAR CHO_CHANG
ENCODING 170
SWIDTH 500 0
DWIDTH 9 0
BBX 9 9 0 0
BITMAP
0180
1980
3f00
1e00
1e00
7600
cc00
cc00
7800
ENDCHAR
STARTCHAR cab
ENCODING 171
SWIDTH 500 0
DWIDTH 9 0
BBX 9 9 0 0
BITMAP
0180
2d80
7f00
3e00
1e00
7600
cc00
cc00
7800
ENDCHAR
STARTCHAR CHO_CHOE
ENCODING 172
SWIDTH 500 0
DWIDTH 9 0
BBX 9 8 0 0
BITMAP
7d80
3580
6f00
6f00
6f00
de00
ee00
fe00
ENDCHAR
STARTCHAR YO_YING
ENCODING 173
SWIDTH 500 0
DWIDTH 9 0
BBX 9 11 0 -3
BITMAP
7d80
3580
6f00
6f00
6f00
de00
fe00
fe00
0000
1e00
1c00
ENDCHAR
STARTCHAR cae
ENCODING 174
SWIDTH 500 0
DWIDTH 9 0
BBX 9 11 0 -3
BITMAP
1f80
0c80
1980
1980
1980
7300
f300
6f00
3e00
7e00
3600
ENDCHAR
STARTCHAR caf
ENCODING 175
SWIDTH 500 0
DWIDTH 9 0
BBX 9 11 0 -3
BITMAP
1f80
0c80
1980
1980
1980
7300
f300
6f00
7e00
fe00
6a00
ENDCHAR
STARTCHAR cb0
ENCODING 176
SWIDTH 500 0
DWIDTH 9 0
BBX 9 11 0 -3
BITMAP
0f80
1800
7f00
0d80
1f80
1f00
0700
3600
ee00
be00
ea00
ENDCHAR
STARTCHAR THO_NANGMONTHO
ENCODING 177
SWIDTH 500 0
DWIDTH 9 0
BBX 8 8 0 0
BITMAP
5e
ff
7e
36
66
cc
cc
cc
ENDCHAR
STARTCHAR THO_PHUTHAO
ENCODING 178
SWIDTH 500 0
DWIDTH 9 0
BBX 9 8 0 0
BITMAP
1680
3e80
6780
7f80
7f80
7f00
d700
df00
ENDCHAR
STARTCHAR NO_NEN
ENCODING 179
SWIDTH 500 0
DWIDTH 9 0
BBX 9 8 0 0
BITMAP
7d80
3580
6f00
6f00
6f00
de00
fd00
ff00
ENDCHAR
STARTCHAR cb4
ENCODING 180
SWIDTH 500 0
DWIDTH 9 0
BBX 9 8 0 0
BITMAP
1f00
3180
7b00
7f00
5b00
7600
e600
c600
ENDCHAR
STARTCHAR cb5
ENCODING 181
SWIDTH 500 0
DWIDTH 9 0
BBX 9 8 0 0
BITMAP
1700
3d80
7b00
7f00
5b00
7600
e600
c600
ENDCHAR
STARTCHAR cb6
ENCODING 182
SWIDTH 500 0
DWIDTH 9 0
BBX 9 8 0 0
BITMAP
3f00
1980
3300
3300
6300
e600
f600
6600
ENDCHAR
STARTCHAR THO_THAHAN
ENCODING 183
SWIDTH 500 0
DWIDTH 9 0
BBX 9 8 0 0
BITMAP
6700
fd80
7b00
3b00
3300
6600
6600
6600
ENDCHAR
STARTCHAR THO_THONG
ENCODING 184
SWIDTH 500 0
DWIDTH 9 0
BBX 8 8 0 0
BITMAP
3f
60
fc
36
36
6c
6c
f8
ENDCHAR
STARTCHAR NO_NU
ENCODING 185
SWIDTH 500 0
DWIDTH 9 0
BBX 8 8 0 0
BITMAP
63
f3
76
66
66
fc
fe
de
ENDCHAR
STARTCHAR BO_BAIMAI
ENCODING 186
SWIDTH 500 0
DWIDTH 9 0
BBX 9 8 0 0
BITMAP
6180
f180
7300
6300
6300
c600
c600
7c00
ENDCHAR
STARTCHAR cbb
ENCODING 187
SWIDTH 500 0
DWIDTH 9 0
BBX 9 11 0 0
BITMAP
0080
0080
0180
6180
f180
7300
6300
6300
c600
c600
7c00
ENDCHAR
STARTCHAR PHO_PHUNG
ENCODING 188
SWIDTH 500 0
DWIDTH 9 0
BBX 9 8 0 0
BITMAP
3180
7980
f300
cb00
db00
f600
f600
dc00
ENDCHAR
STARTCHAR cbd
ENCODING 189
SWIDTH 500 0
DWIDTH 9 0
BBX 9 11 0 0
BITMAP
0080
0080
0180
3180
7980
f300
cb00
db00
f600
f600
dc00
ENDCHAR
STARTCHAR PHO_PHAN
ENCODING 190
SWIDTH 500 0
DWIDTH 9 0
BBX 9 8 0 0
BITMAP
3080
7680
3d80
3d80
6d80
db00
db00
6e00
ENDCHAR
STARTCHAR cbf
ENCODING 191
SWIDTH 500 0
DWIDTH 9 0
BBX 9 11 0 0
BITMAP
0080
0080
0180
6180
ed80
7b00
7b00
db00
b600
f600
dc00
ENDCHAR
STARTCHAR cc0
ENCODING 192
SWIDTH 500 0
DWIDTH 9 0
BBX 9 8 0 0
BITMAP
3f00
1980
3300
3300
3300
e600
e600
c600
ENDCHAR
STARTCHAR MO_MA
ENCODING 193
SWIDTH 500 0
DWIDTH 9 0
BBX 9 8 0 0
BITMAP
1880
3c80
1d80
0d80
1980
7b00
ff00
6600
ENDCHAR
STARTCHAR YO_YAK
ENCODING 194
SWIDTH 500 0
DWIDTH 9 0
BBX 9 8 0 0
BITMAP
1d80
3f80
6f00
6300
7b00
c600
c600
7c00
ENDCHAR
STARTCHAR cc3
ENCODING 195
SWIDTH 500 0
DWIDTH 9 0
BBX 8 8 0 0
BITMAP
3f
60
fc
06
06
1c
3c
18
ENDCHAR
STARTCHAR cc4
ENCODING 196
SWIDTH 500 0
DWIDTH 9 0
BBX 9 11 0 -3
BITMAP
3f00
1980
3300
3300
6300
e600
f600
6600
0c00
0c00
0c00
ENDCHAR
STARTCHAR LO_LING
ENCODING 197
SWIDTH 500 0
DWIDTH 9 0
BBX 9 8 0 0
BITMAP
1f00
3180
6300
3b00
6f00
e600
f600
6600
ENDCHAR
STARTCHAR cc6
ENCODING 198
SWIDTH 500 0
DWIDTH 9 0
BBX 9 11 0 -3
BITMAP
3f00
1980
3300
3300
3300
e600
e600
c600
0c00
0c00
0c00
ENDCHAR
STARTCHAR WO_WAEN
ENCODING 199
SWIDTH 500 0
DWIDTH 9 0
BBX 8 8 0 0
BITMAP
3e
63
c6
06
06
1c
3c
18
ENDCHAR
STARTCHAR cc8
ENCODING 200
SWIDTH 500 0
DWIDTH 9 0
BBX 9 9 0 0
BITMAP
0080
1e80
3380
6b00
7f00
7b00
c600
c600
c600
ENDCHAR
STARTCHAR cc9
ENCODING 201
SWIDTH 500 0
DWIDTH 9 0
BBX 9 8 0 0
BITMAP
6180
f180
7f00
7f80
6f00
c600
c600
7c00
ENDCHAR
STARTCHAR cca
ENCODING 202
SWIDTH 500 0
DWIDTH 9 0
BBX 9 9 0 0
BITMAP
0080
1e80
3380
6300
3b00
6f00
e600
f600
6600
ENDCHAR
STARTCHAR HO_HIP
ENCODING 203
SWIDTH 500 0
DWIDTH 9 0
BBX 8 8 0 0
BITMAP
6e
eb
7e
76
66
cc
cc
cc
ENDCHAR
STARTCHAR LO_CHULA
ENCODING 204
SWIDTH 500 0
DWIDTH 9 0
BBX 9 9 0 0
BITMAP
0380
3680
7b80
3980
3d80
6d80
db00
db00
6e00
ENDCHAR
STARTCHAR O_ANG
ENCODING 205
SWIDTH 500 0
DWIDTH 9 0
BBX 9 8 0 0
BITMAP
1f00
3180
6300
3300
7b00
f600
c600
7c00
ENDCHAR
STARTCHAR cce
ENCODING 206
SWIDTH 500 0
DWIDTH 9 0
BBX 9 9 0 0
BITMAP
0180
1f80
3780
1f00
3300
7b00
f600
c600
7c00
ENDCHAR
STARTCHAR PAI_YAN_NOI
ENCODING 207
SWIDTH 500 0
DWIDTH 9 0
BBX 8 8 1 0
BITMAP
66
ff
7e
06
06
0c
0c
18
ENDCHAR
STARTCHAR SARA_A
ENCODING 208
SWIDTH 500 0
DWIDTH 9 0
BBX 9 7 0 1
BITMAP
1980
3f00
1e00
0000
6600
fc00
7800
ENDCHAR
STARTCHAR MAI_HAN-AKAT
ENCODING 209
SWIDTH 500 0
DWIDTH 9 0
BBX 5 3 4 9
BITMAP
60
f8
78
ENDCHAR
STARTCHAR SARA_AA
ENCODING 210
SWIDTH 500 0
DWIDTH 9 0
BBX 7 8 1 0
BITMAP
7c
c6
0c
0c
0c
18
18
18
ENDCHAR
STARTCHAR cd3
ENCODING 211
SWIDTH 500 0
DWIDTH 9 0
BBX 7 11 1 0
BITMAP
60
f0
60
7c
c6
0c
0c
0c
18
18
18
ENDCHAR
STARTCHAR SARA_I
ENCODING 212
SWIDTH 500 0
DWIDTH 9 0
BBX 6 3 3 9
BITMAP
3c
64
fc
ENDCHAR
STARTCHAR SARA_II
ENCODING 213
SWIDTH 500 0
DWIDTH 9 0
BBX 7 3 2 9
BITMAP
3a
6e
fe
ENDCHAR
STARTCHAR SARA_UE
ENCODING 214
SWIDTH 500 0
DWIDTH 9 0
BBX 7 3 2 9
BITMAP
3e
6a
fc
ENDCHAR
STARTCHAR SARA_UEE
ENCODING 215
SWIDTH 500 0
DWIDTH 9 0
BBX 7 3 2 9
BITMAP
2a
7e
fe
ENDCHAR
STARTCHAR SARA_U
ENCODING 216
SWIDTH 500 0
DWIDTH 9 0
BBX 4 3 2 -3
BITMAP
70
60
c0
ENDCHAR
STARTCHAR SARA_UU
ENCODING 217
SWIDTH 500 0
DWIDTH 9 0
BBX 5 3 2 -3
BITMAP
68
78
f0
ENDCHAR
STARTCHAR PHINTHU
ENCODING 218
SWIDTH 500 0
DWIDTH 9 0
BBX 4 2 2 -2
BITMAP
70
e0
ENDCHAR
STARTCHAR BAHT
ENCODING 223
SWIDTH 500 0
DWIDTH 9 0
BBX 9 10 0 0
BITMAP
0300
1f80
1a80
1f80
3f00
3580
6d80
7b00
fe00
1800
ENDCHAR
STARTCHAR SARA_E
ENCODING 224
SWIDTH 500 0
DWIDTH 9 0
BBX 4 8 4 0
BITMAP
30
30
60
60
60
e0
f0
60
ENDCHAR
STARTCHAR SARA_AE
ENCODING 225
SWIDTH 500 0
DWIDTH 9 0
BBX 8 8 1 0
BITMAP
33
33
66
66
66
ee
ff
66
ENDCHAR
STARTCHAR SARA_O
ENCODING 226
SWIDTH 500 0
DWIDTH 9 0
BBX 6 12 3 0
BITMAP
3c
60
f8
30
30
30
60
60
60
e0
f0
60
ENDCHAR
STARTCHAR SARA_MAI_MUAN
ENCODING 227
SWIDTH 500 0
DWIDTH 9 0
BBX 7 12 2 0
BITMAP
3c
66
e6
fc
6c
0c
18
18
18
38
3c
18
ENDCHAR
STARTCHAR SARA_MAI_MALAI
ENCODING 228
SWIDTH 500 0
DWIDTH 9 0
BBX 5 12 4 0
BITMAP
d8
f8
78
30
30
30
60
60
60
e0
f0
60
ENDCHAR
STARTCHAR LAK_KHANG_YAO
ENCODING 229
SWIDTH 500 0
DWIDTH 9 0
BBX 7 11 1 -3
BITMAP
7c
c6
0c
0c
0c
18
18
18
30
30
30
ENDCHAR
STARTCHAR MAI_YAMOK
ENCODING 230
SWIDTH 500 0
DWIDTH 9 0
BBX 7 10 1 -2
BITMAP
7c
f6
ec
0c
0c
18
18
18
30
60
ENDCHAR
STARTCHAR MAI_TAI_KHU
ENCODING 231
SWIDTH 500 0
DWIDTH 9 0
BBX 6 3 3 9
BITMAP
7c
d4
f8
ENDCHAR
STARTCHAR MAI_EK
ENCODING 232
SWIDTH 500 0
DWIDTH 9 0
BBX 2 2 7 12
BITMAP
40
c0
ENDCHAR
STARTCHAR MAI_THO
ENCODING 233
SWIDTH 500 0
DWIDTH 9 0
BBX 4 3 5 12
BITMAP
60
70
f0
ENDCHAR
STARTCHAR MAI_TRI
ENCODING 234
SWIDTH 500 0
DWIDTH 9 0
BBX 5 3 4 12
BITMAP
50
f8
f8
ENDCHAR
STARTCHAR MAI_CHATTAWA
ENCODING 235
SWIDTH 500 0
DWIDTH 9 0
BBX 3 3 6 12
BITMAP
e0
60
e0
ENDCHAR
STARTCHAR THANTHAKHAT
ENCODING 236
SWIDTH 500 0
DWIDTH 9 0
BBX 2 3 7 12
BITMAP
40
c0
c0
ENDCHAR
STARTCHAR NIKKHAHIT
ENCODING 237
SWIDTH 500 0
DWIDTH 9 0
BBX 4 3 5 9
BITMAP
70
f0
e0
ENDCHAR
STARTCHAR YAMAKKAN
ENCODING 238
SWIDTH 500 0
DWIDTH 9 0
BBX 5 3 4 9
BITMAP
38
78
f0
ENDCHAR
STARTCHAR FONGMAN
ENCODING 239
SWIDTH 500 0
DWIDTH 9 0
BBX 8 7 1 0
BITMAP
3e
63
6b
db
d6
c6
7c
ENDCHAR
STARTCHAR ZERO
ENCODING 240
SWIDTH 500 0
DWIDTH 9 0
BBX 8 7 0 0
BITMAP
3e
63
63
c3
c6
c6
7c
ENDCHAR
STARTCHAR ONE
ENCODING 241
SWIDTH 500 0
DWIDTH 9 0
BBX 8 7 0 0
BITMAP
3e
63
c3
fb
fe
f6
6c
ENDCHAR
STARTCHAR TWO
ENCODING 242
SWIDTH 500 0
DWIDTH 9 0
BBX 9 8 0 0
BITMAP
c000
5b00
7f80
7f80
6180
c300
c300
7e00
ENDCHAR
STARTCHAR THREE
ENCODING 243
SWIDTH 500 0
DWIDTH 9 0
BBX 8 7 0 0
BITMAP
3a
6f
cf
fb
fe
f6
6c
ENDCHAR
STARTCHAR FOUR
ENCODING 244
SWIDTH 500 0
DWIDTH 9 0
BBX 9 8 0 0
BITMAP
0180
1f00
3000
6e00
7e00
dc00
d800
7c00
ENDCHAR
STARTCHAR cf5
ENCODING 245
SWIDTH 500 0
DWIDTH 9 0
BBX 9 9 0 0
BITMAP
0f80
0f80
1f00
3000
6e00
7e00
dc00
d800
7c00
ENDCHAR
STARTCHAR SIX
ENCODING 246
SWIDTH 500 0
DWIDTH 9 0
BBX 8 8 0 0
BITMAP
60
7e
73
c3
3b
7e
76
7c
ENDCHAR
STARTCHAR SEVEN
ENCODING 247
SWIDTH 500 0
DWIDTH 9 0
BBX 9 7 0 0
BITMAP
2d80
7f80
c780
ff80
ff00
ff00
7e00
ENDCHAR
STARTCHAR EIGHT
ENCODING 248
SWIDTH 500 0
DWIDTH 9 0
BBX 9 8 0 0
BITMAP
0180
1f00
3000
6600
6f00
fe00
f600
dc00
ENDCHAR
STARTCHAR NINE
ENCODING 249
SWIDTH 500 0
DWIDTH 9 0
BBX 9 8 0 0
BITMAP
0180
3f00
7c00
7c00
cc00
ec00
fc00
6c00
ENDCHAR
STARTCHAR ANGKHANKHU
ENCODING 250
SWIDTH 500 0
DWIDTH 9 0
BBX 9 8 0 0
BITMAP
6680
ff80
7f00
0f00
0f00
1e00
1e00
3400
ENDCHAR
STARTCHAR KHOMUT
ENCODING 251
SWIDTH 500 0
DWIDTH 9 0
BBX 9 8 0 0
BITMAP
1800
3c00
6c00
7f80
7f00
f800
f000
6000
ENDCHAR
ENDFONT
